#!OML:ASF G:\JayActor3\Patient Classification 1\Patient 1\Session 6\male.ASF
:FULLY-SPECIFIED
:DEGREES
1911
root 11.3133 16.334 -9.50839 168.851 -72.8324 -163.634
lowerback 6.86833 1.31789 -3.50177
upperback 2.64919 1.29347 -3.81936
thorax -1.10713 0.573256 -2.07121
lowerneck -2.44272 -2.86734 -3.95504
upperneck 27.793 -3.97502 -3.65067
head 9.11537 -3.07868 -0.978992
rclavicle 9.14409e-015 3.81667e-014
rhumerus -21.836 33.1552 -101.104
rradius 121.804
rwrist -87.3197
rhand -21.5315 -13.265
rfingers 7.12502
rthumb 4.86118 -43.1892
lclavicle 9.14409e-015 3.81667e-014
lhumerus -12.7435 11.0605 56.9244
lradius 52.0705
lwrist 52.8746
lhand -22.4302 9.50399
lfingers 7.12502
lthumb 3.9933 39.4463
rfemur -17.6376 3.69283 12.0524
rtibia 27.2922
rfoot -21.3567 -15.1696
rtoes -14.7357
lfemur -8.53131 -5.81277 -3.63903
ltibia 15.58
lfoot -22.9357 37.8508
ltoes 9.43474
1912
root 11.321 16.3268 -9.53338 168.794 -72.85 -163.551
lowerback 6.86241 1.30669 -3.28469
upperback 2.69446 1.29473 -3.8385
thorax -1.05188 0.574397 -2.21191
lowerneck -2.43036 -2.86223 -4.07767
upperneck 27.8144 -3.92786 -3.77493
head 9.12225 -3.08242 -0.997362
rclavicle -1.51076e-014 -4.77083e-015
rhumerus -21.8766 33.4023 -101.328
rradius 121.928
rwrist -87.8761
rhand -21.4343 -13.0617
rfingers 7.12502
rthumb 4.95496 -42.9837
lclavicle -1.51076e-014 -4.77083e-015
lhumerus -11.8738 10.4358 57.0846
lradius 52.8618
lwrist 52.7023
lhand -22.3568 9.49014
lfingers 7.12502
lthumb 4.06427 39.4311
rfemur -17.4263 3.95931 12.124
rtibia 26.8777
rfoot -20.4447 -15.5375
rtoes -13.0796
lfemur -8.56438 -6.17252 -3.5082
ltibia 15.6473
lfoot -23.6167 37.8758
ltoes 10.0689
1913
root 11.3278 16.3188 -9.55966 168.774 -72.883 -163.507
lowerback 6.83623 1.29048 -3.06616
upperback 2.73519 1.29108 -3.84931
thorax -0.990293 0.573532 -2.3441
lowerneck -2.42055 -2.85398 -4.197
upperneck 27.854 -3.8772 -3.90326
head 9.13596 -3.08572 -1.01808
rclavicle 5.96354e-015 1.74931e-014
rhumerus -21.9163 33.6493 -101.539
rradius 122.011
rwrist -88.447
rhand -21.3262 -12.8677
rfingers 7.12502
rthumb 5.05942 -42.7873
lclavicle 5.96354e-015 1.74931e-014
lhumerus -11.0779 9.90539 57.2806
lradius 53.5494
lwrist 52.3924
lhand -22.1465 9.39593
lfingers 7.12502
lthumb 4.26732 39.3329
rfemur -17.1956 4.23878 12.1671
rtibia 26.5582
rfoot -19.4833 -15.7387
rtoes -11.2832
lfemur -8.59228 -6.54748 -3.38931
ltibia 15.7103
lfoot -24.344 37.8726
ltoes 10.7446
1914
root 11.3337 16.3111 -9.58721 168.829 -72.9242 -163.544
lowerback 6.79189 1.27502 -2.86582
upperback 2.77153 1.28846 -3.85176
thorax -0.923754 0.573404 -2.45723
lowerneck -2.39222 -2.84494 -4.31145
upperneck 27.8962 -3.82847 -4.03242
head 9.14705 -3.09011 -1.0398
rclavicle -3.77691e-014 6.83819e-014
rhumerus -21.9526 33.8936 -101.728
rradius 122.054
rwrist -89.049
rhand -21.1993 -12.6773
rfingers 7.12502
rthumb 5.18193 -42.594
lclavicle -3.77691e-014 6.83819e-014
lhumerus -10.3721 9.45101 57.5234
lradius 54.1542
lwrist 51.9686
lhand -21.839 9.22165
lfingers 7.12502
lthumb 4.56421 39.1525
rfemur -16.9858 4.49383 12.1805
rtibia 26.3065
rfoot -18.5787 -15.8728
rtoes -9.31774
lfemur -8.5727 -6.93087 -3.29655
ltibia 15.6994
lfoot -25.0907 37.8585
ltoes 11.4703
1915
root 11.3386 16.3057 -9.61505 168.993 -72.9902 -163.708
lowerback 6.74457 1.25782 -2.69501
upperback 2.81141 1.28159 -3.84995
thorax -0.852756 0.571033 -2.54905
lowerneck -2.35317 -2.83871 -4.41173
upperneck 27.9374 -3.78515 -4.1686
head 9.15534 -3.09649 -1.06655
rclavicle -6.75868e-015 -4.45278e-014
rhumerus -21.9833 34.1299 -101.89
rradius 122.062
rwrist -89.6856
rhand -21.0437 -12.4882
rfingers 7.12502
rthumb 5.33219 -42.4011
lclavicle -6.75868e-015 -4.45278e-014
lhumerus -9.75248 9.06862 57.826
lradius 54.6916
lwrist 51.4656
lhand -21.4432 9.00663
lfingers 7.12502
lthumb 4.94639 38.9289
rfemur -16.8194 4.65554 12.1543
rtibia 26.1057
rfoot -17.7935 -15.9957
rtoes -7.44784
lfemur -8.46494 -7.34358 -3.25641
ltibia 15.5492
lfoot -25.8358 37.8565
ltoes 12.2541
1916
root 11.3429 16.3041 -9.64298 169.252 -73.0673 -163.982
lowerback 6.70354 1.24272 -2.56447
upperback 2.84859 1.27478 -3.83307
thorax -0.789318 0.568614 -2.60289
lowerneck -2.30576 -2.83591 -4.49514
upperneck 27.9836 -3.74764 -4.31632
head 9.16319 -3.10556 -1.10063
rclavicle -2.14687e-014 4.6118e-014
rhumerus -22.0378 34.3572 -102.026
rradius 122.049
rwrist -90.3471
rhand -20.857 -12.3001
rfingers 7.12502
rthumb 5.51238 -42.2084
lclavicle -2.14687e-014 4.6118e-014
lhumerus -9.23302 8.75194 58.202
lradius 55.1759
lwrist 50.9228
lhand -21.0848 8.78474
lfingers 7.12502
lthumb 5.29244 38.6986
rfemur -16.7164 4.72264 12.1023
rtibia 25.9532
rfoot -17.118 -16.1102
rtoes -5.7447
lfemur -8.25097 -7.7709 -3.26078
ltibia 15.2171
lfoot -26.5588 37.8832
ltoes 13.1004
1917
root 11.3469 16.3069 -9.67001 169.557 -73.1573 -164.318
lowerback 6.69229 1.22558 -2.46533
upperback 2.88002 1.26225 -3.79215
thorax -0.749786 0.563378 -2.61455
lowerneck -2.25438 -2.83617 -4.56716
upperneck 28.0378 -3.71564 -4.47137
head 9.17272 -3.11744 -1.13985
rclavicle -2.70347e-014 9.22361e-014
rhumerus -22.1291 34.5812 -102.139
rradius 122.021
rwrist -91.0117
rhand -20.6492 -12.1182
rfingers 7.12502
rthumb 5.71302 -42.0212
lclavicle -2.70347e-014 9.22361e-014
lhumerus -8.83123 8.48871 58.6556
lradius 55.6189
lwrist 50.3848
lhand -20.8028 8.56981
lfingers 7.12502
lthumb 5.56474 38.4767
rfemur -16.6566 4.68309 12.0446
rtibia 25.8519
rfoot -16.5683 -16.18
rtoes -4.35175
lfemur -7.92808 -8.21983 -3.29913
ltibia 14.7001
lfoot -27.2483 37.9519
ltoes 13.992
